<?xml version="1.0" encoding="utf-8"?>
<!-- Generator: Adobe Illustrator 21.1.0, SVG Export Plug-In . SVG Version: 6.00 Build 0)  -->
<svg version="1.1" id="Layer_1" xmlns="http://www.w3.org/2000/svg" xmlns:xlink="http://www.w3.org/1999/xlink" x="0px" y="0px"
	 viewBox="0 0 261 125" style="enable-background:new 0 0 261 125;" xml:space="preserve">
<style type="text/css">
	.st0{fill:#FA6900;}
</style>
<path class="st0" d="M66.2,83.3l23.5-2.9v17.4l-65.9,17.9l40.8-68.4L31.4,43V17l60.1,16.6L66.2,83.3z"/>
<path class="st0" d="M122.4,85.4c-3.1,5.3-8.6,10.1-16.2,11.4c-8.3,1.4-15.3-2-19.7-7.2c-5.2-6.1-7.8-15.6-7.8-24.3
	s2.6-18.1,7.8-24.3c4.4-5.2,11.4-8.6,19.7-7.2c7.6,1.3,13.2,6.2,16.2,11.5c3.3,5.7,4.9,13.3,4.9,20S125.7,79.8,122.4,85.4z
	 M98.4,53.9c-2.1,2.8-3.3,6.5-3.3,11.6c0,5.7,1.6,9.3,3.3,11.6c1.8,2.3,4.3,4.1,7.8,3.8c2.9-0.2,5.2-1.8,7-4.6
	c1.8-2.8,2.7-6.2,2.7-10.7s-1-7.9-2.7-10.7c-1.8-2.8-4.2-4.4-7.1-4.7C103.1,49.9,100.5,51.2,98.4,53.9z"/>
<path class="st0" d="M159.1,83.3c-3.1,4.5-8.6,8.3-15.9,8.9c-7.5,0.5-13.7-2.8-17.3-7.2c-4.2-5.1-6.3-12.7-6.3-19.5
	s2.1-14.3,6.3-19.5c3.7-4.5,9.8-7.8,17.3-7.2c7.3,0.5,12.7,4.4,15.9,8.9c3.5,5,5.1,11.8,5.1,17.8S162.6,78.3,159.1,83.3z
	 M136.3,55.9c-1.9,2.4-2.9,5.5-2.9,9.6c0,4.7,1.4,7.7,2.9,9.6c1.6,2,3.8,3.5,7.1,3.4c2.7-0.1,4.9-1.4,6.7-3.8
	c1.7-2.3,2.7-5.3,2.7-9.3s-1-6.9-2.7-9.3c-1.7-2.4-4-3.7-6.8-3.8C140.4,52.3,138.1,53.5,136.3,55.9z"/>
<path class="st0" d="M175.9,76.2l18.3-0.2v12.3l-40.5,1.1l21.1-34.7l-17.9-0.2V41.7l39,1.1L175.9,76.2z"/>
<path class="st0" d="M222.4,42.7h14.7v45.5h-14.7v-5.5c-4,6.1-9.7,7-13.5,7c-6.5,0-12-1.6-17-6.9c-4.8-5.1-6.6-11-6.6-17
	c0-7.7,2.9-14.2,7-18.4c4-4,9.5-6.2,15.8-6.2c3.9,0,10.1,0.9,14.3,6.6L222.4,42.7L222.4,42.7z M203.8,57.1c-1.5,1.5-3.4,4.2-3.4,8.3
	s1.7,6.7,3.1,8.2c2,2.1,5.2,3.6,8.7,3.6c3,0,5.7-1.2,7.6-3.2c1.9-1.8,3.6-4.7,3.6-8.6c0-3.3-1.2-6.3-3.4-8.4
	c-2.2-2.1-5.5-3.2-8.2-3.2C208.6,53.8,205.7,55.2,203.8,57.1z"/>
</svg>
